<svg id="Calque_1" data-name="Calque 1" xmlns="http://www.w3.org/2000/svg" viewBox="0 0 513.56 299.51"><defs><style>.cls-1{fill:#150232;}.cls-2,.cls-5{fill:#fff;}.cls-2,.cls-3,.cls-4{stroke:#1d1d1b;stroke-miterlimit:10;stroke-width:0.89px;}.cls-3{fill:#e94f48;}.cls-4{fill:#0c8446;}</style></defs><text x="-40.86" y="-326.77"/><rect class="cls-1" width="513.56" height="299.51" rx="33.58"/><path class="cls-2" d="M150.13,406.31c.05-.54,0-1.1.41-1.55a1.09,1.09,0,0,0,.15-.46c.33-1.13.33-1.13,1.52-1.12s2.53,0,3.8,0a3,3,0,0,1,1.84.39,1,1,0,0,0,1.24-.09c.16-.11.26-.3.5-.31,1.55,0,2.51-1.07,3.38-2a16.83,16.83,0,0,1,3.16-2.37c.43-.29.81-.06.88.48a1.07,1.07,0,0,0,.18.65.8.8,0,0,1,.11.91,1.24,1.24,0,0,0-.08.76.43.43,0,0,0,.74.27,7.6,7.6,0,0,0,.7-.69c.33,0,.68.08.83-.35s-.2-.55-.43-.77c.05-.21,0-.56.29-.54,1,.08,1.83-.49,2.8-.43a4.26,4.26,0,0,1,.51,0c.51.09.63.34.39.85a.91.91,0,0,0-.07.56c0,.24.22.31.45.3s.36-.09.35-.27a6.28,6.28,0,0,1,.79-2.41.55.55,0,0,0-.17-.62.49.49,0,0,1,.09-.83c.34-.24.51-.83,1.14-.52s1.35.11,2,.37a.74.74,0,0,0,.75-.24,1.49,1.49,0,0,1,1.13-.33c.94,0,.94,0,1.14.92.1.46.45.58,1.22.42a.83.83,0,0,1,.57.84c-.08.92,0,1.84,0,2.75q0,22.62,0,45.23a11.79,11.79,0,0,0,.22,3.08c0,.85-.05,1.69-.05,2.53q0,54.69,0,109.39c0,.94,0,1.88,0,2.82a26.85,26.85,0,0,0-7.15,3.34c-.29,0-.44.09-.43.37h0c-.29,0-.43.1-.43.37h0a2.27,2.27,0,0,0-.59,0c-.57.22-1.24.25-1.67.76l-.77.06c-1.39-.14-2.78,0-4.16,0a.85.85,0,0,0-.4,0,4,4,0,0,1-2.27.3c0-1-.72-1.32-1.53-1.53a4.32,4.32,0,0,1-2.79-1.71,1.69,1.69,0,0,0-.94-.71,28.88,28.88,0,0,0-4.61-1.18,46.39,46.39,0,0,0-4.87-.46.72.72,0,0,1,.29-.47.28.28,0,0,0,0-.49c-.6-.33-.93-1.09-1.78-1h0a.62.62,0,0,0-.83-.39l-.43-.18a1.7,1.7,0,0,0-1.76-1,2.52,2.52,0,0,1-1.74-.49v0a.87.87,0,0,0-.79-.8l0-.38c.1-.07.33-.12.23-.24a1.77,1.77,0,0,1-.29-1c0-.19-.16-.26-.33-.3,0-.31-.31-.42-.47-.6a2.61,2.61,0,0,1-.86-2.72,1.25,1.25,0,0,0-.67-1.58,6.87,6.87,0,0,1-1-.83c-.69-.59-1.22-1.39-2.18-1.66a13.39,13.39,0,0,1-1.73-2.31,1.88,1.88,0,0,0,0-1,3.25,3.25,0,0,0,0-1.61,1.39,1.39,0,0,0,0-.78,2.55,2.55,0,0,0,.28-1.92,4,4,0,0,1-.24-1.71,4.41,4.41,0,0,0-.18-2,5.23,5.23,0,0,1-.24-2.47c0-.47.21-1.11.75-1.15,1.23-.08,1.45-.72,1.35-1.69a6.6,6.6,0,0,1,0-.77.66.66,0,0,0-.18-.54,7.32,7.32,0,0,0-1.79-1.42c-.5-.19-.56-.49-.65-.86a4.49,4.49,0,0,1,0-1c0-.49.14-1.05-.42-1.41l0-1.12c.1-.77,0-.83-.85-.94h0c0-.26-.11-.39-.39-.39h0c0-.39-.3-.4-.6-.35a2.5,2.5,0,0,1-.66-.59,8.73,8.73,0,0,0-1.34-1.44,3,3,0,0,1-1.32-2.37c0-.35-.16-.69-.21-1-.13-.9-.72-1.68-.66-2.61a2.56,2.56,0,0,0-.35-1.49,3.93,3.93,0,0,1-.45-1.76c0-.12.07-.3,0-.37-.46-.48-.33-1.06-.36-1.62s.21-.67.67-.54.64.12.82-.15-.13-.52-.21-.78-.33-.29-.58-.29-.54,0-.74-.2a2.18,2.18,0,0,0,0-.95c-.24-1.35.81-2.38,1-3.62.12,0,.21,0,.24,0a.71.71,0,0,0,.91.22c.34-.21.06-.52,0-.79-.11-.95-.19-1.88.73-2.57a3.07,3.07,0,0,0,.57-.67c.22-.32.43-.52.78-.13a.29.29,0,0,0,.44,0,.34.34,0,0,0,0-.45c-.15-.22-.38-.44-.26-.7.25-.55-.11-1-.23-1.47a12.85,12.85,0,0,1,.18-2.31,1.21,1.21,0,0,1,.8-1,2.78,2.78,0,0,0,1.3-1.14l.59,0a.35.35,0,0,0,.61,0l1.83,0c.24,0,.52,0,.69-.1a3.31,3.31,0,0,0,1.4-2,2.42,2.42,0,0,1,.07-.67,8.54,8.54,0,0,0,.77-3.78,8.86,8.86,0,0,0,1.6-2.39h0a.37.37,0,0,0,.42-.38.69.69,0,0,0,.2,0c.57.15.87-.19,1.17-.56a8.78,8.78,0,0,0,1.28-2.76c.13-.37.21-.9.53-1,.77-.23.8-.75.87-1.32l0,0a1.57,1.57,0,0,0,1.61-1.34l.06-.55c.4-.05.44-.3.38-.61,0-.11,0-.22.07-.32a.55.55,0,0,0,.4-.19c.09,0,.24,0,.26-.08a7.92,7.92,0,0,1,2.09-3c.16-.13.27-.3.07-.49l.08-.33c.67-.26.94-.88,1.34-1.38,0-.05,0-.18-.07-.26l0-.31a3.62,3.62,0,0,0-1-2c-.16-.2-.2.2-.28.33l-.33-.1c0-.54-.26-1.07-.12-1.63h0c.51-.07.37-.47.4-.76a3.12,3.12,0,0,1,1.23-2.59c.33-.22.27-.57-.22-.68a3,3,0,0,0-.09-.95c.18-.6-.32-.91-.62-1.3a12.21,12.21,0,0,1-1.53-2.13,1.29,1.29,0,0,0-1.21-.88c-.35-.61-.63-1.26-.94-1.89a2.23,2.23,0,0,1-.05-2.44.33.33,0,0,0,0-.45c-.31-.25-.17-.52-.05-.79a2,2,0,0,0-.09-2.12,3.24,3.24,0,0,1-.19-.55,12.52,12.52,0,0,0-2.8-4.72,2.65,2.65,0,0,1-1-2,.46.46,0,0,0,.38-.39,14.8,14.8,0,0,0,0-2.4c0-.2-.2-.24-.37-.28h0a3.32,3.32,0,0,0-.1-1.33,6.51,6.51,0,0,1,.06-4.48c.06-.13,0-.31,0-.47l0-1.09a2.37,2.37,0,0,0-1.21-1.76c-.16-.29-.56-.42-.62-.78a2.64,2.64,0,0,1-.27-2.29,10.54,10.54,0,0,1,2.1-3.57,5.66,5.66,0,0,0,1.72-3,.4.4,0,0,1,.4-.36.59.59,0,0,0,.39-.27c.6-.81,1.24-1.59,1.84-2.41a13,13,0,0,0,1.22-2.26c.06,0,.17,0,.19,0a7.06,7.06,0,0,1,2-2.08.86.86,0,0,0,.28-1.27,1.19,1.19,0,0,1,.18-1.59c.25-.25.53-.56.44-.94A3.5,3.5,0,0,0,150.13,406.31Z" transform="translate(-40.86 -326.77)"/><path class="cls-3" d="M265.51,378.13c0,.23,0,.45,0,.68l0,2.42c0,.48.2.87.72.91s.9.11,1,.68c.06.24.63.08.64.38a1.79,1.79,0,0,0,.84,1.65c.19.13.16.63.63.7.25,0,.24.29.24.48,0,1.26,0,2.52,0,3.78,0,.24,0,.49-.33.53-.48.06-.49.37-.49.71l0,1.65a1.58,1.58,0,0,1-.35,1,5.22,5.22,0,0,0-1.24,2.17,2.15,2.15,0,0,1-.64,1.36,6.76,6.76,0,0,0-1.19,1.54,1,1,0,0,1-1.64.12c-.22-.21-.39-.46-.74-.47-.83,0-1.1-.79-1.69-1.14-.15-.09-.09-.28-.06-.44a1.45,1.45,0,0,0-.59-1.34,1.17,1.17,0,0,1-.51-1.61A.59.59,0,0,0,260,393a5.47,5.47,0,0,0-.54-.44,1,1,0,0,1-.58-1.13,4.18,4.18,0,0,0,0-1.06c-.09-.62-.43-.85-1.08-.76s-1,.16-1.52.19c-1.94.12-2.9,1.08-2.84,2.87,0,.81,0,1.61,0,2.42,0,.42-.09.86.57.95.24,0,.25.29.23.48-.1,1.26.3,2.49.22,3.75,0,.52,0,1,0,1.55,0,.27,0,.51.4.57.13,0,.33.11.34.18,0,.63.61.66,1,.72s.71.36.7.85c0,1,0,2,0,3,0,.74,0,.74.86.91,0,.84.1,1.71-.8,2.27-.06,0-.06.17-.08.27-.39,0-.78-.07-.83.45,0,.09-.09.22-.16.23-.81.11-.65.7-.63,1.18a3.7,3.7,0,0,0,.22,1.59c.3.64-.9.68-.82,1.34l-.66.08c0-.05-.07-.12-.13-.14-1-.29-1.16.77-1.86.94a.3.3,0,0,0-.23.28c0,.13,0,.26,0,.38l0,.86v0c-.81,0-.82,0-.84.7,0,.42,0,.84,0,1.26a.31.31,0,0,1-.06.16c-.81.26-1,.66-.77,1.53a.51.51,0,0,1-.24.43c-.55-.12-.72.23-.8.63a2,2,0,0,0,0,.94c0,.28,0,.56,0,.85-.32.94.13,1.86.15,2.79a.33.33,0,0,0,.1.26c.79.44.67,1.19.7,1.88s0,1.41,0,2.12a3.84,3.84,0,0,1-.51,2,3.72,3.72,0,0,0-.45,2.71l0,.36c-.07.06-.2.13-.2.19,0,.49.17,1-.52,1.25-.16.05-.13.28-.13.44l0,1.45c.12.73-.35,1.37-.36,2.07a2.54,2.54,0,0,1-.62,1.58,2.81,2.81,0,0,0-.69,1.55,1.83,1.83,0,0,1-.6,1.19.26.26,0,0,0-.22.2c0,.24,0,.53-.36.61a.37.37,0,0,0-.49.35.4.4,0,0,1-.4.37,9,9,0,0,1-2.84.15,8.42,8.42,0,0,0-1.73-.14c-11.81,0-23.62,0-35.43,0-4.1,0-8.19.34-12.3.21a2.79,2.79,0,0,0-.7.08,6.59,6.59,0,0,1-2.65.06c-1.63-.29-3.28.05-4.89-.3-.47,0-.8-.07-.75-.63,0-.32,0-.65,0-1V398.42a4.73,4.73,0,0,0,0-1.25c-.23-.84.43-1.28.84-1.81s.83-.16,1.26-.18.43.15.45.42.85.47.55,1.16c-.16.38.51.79.67,1.25a.49.49,0,0,0,.47.3c.07.79.06.83.8.89.32,0,.52.26.82.28.18-.3,0-.67.25-.94a.68.68,0,0,1,.66.18c.21.16.41.43.68.2s-.11-.38-.18-.58c-.23-.67-.89-1-1.33-1.48a14,14,0,0,0,.06-1.94c0-.22-.06-.55.2-.6.68-.12.64-.57.63-1s.11-.63.58-.61,1,.08,1.14-.63c0-.05.16-.13.25-.14.77-.06,1.31-.63,2-.82.09,0,.24-.1.24-.15-.06-.61.56-.69.83-1a1.43,1.43,0,0,1,1.11-.55c.24,0,.52,0,.57-.28.1-.59,1-.51,1-1.17,0,0,.18-.09.28-.09.36,0,.5-.16.63-.49.22-.53.77-.25,1.18-.27s.44.23.44.52,0,.58.46.63.34.27.35.51,0,.45.05.68a2.13,2.13,0,0,1-.14.35c-.26.51-.54,1-.8,1.53a.39.39,0,0,0,.11.45c.18.14.3,0,.4-.13a1.49,1.49,0,0,1,1.43-.56,1.17,1.17,0,0,0,.95-.25,2,2,0,0,1,1.68-.52.84.84,0,0,0,.9-.32c.23-.39-.17-.6-.4-.79a1.79,1.79,0,0,1-.76-1.68,3.93,3.93,0,0,0-.59-1.26c-.24-.44-.25-1.57,0-1.6.57-.07.64-.64,1.07-.79s.41-.53.4-.88l.32-.16c.1,0,.26,0,.28,0,.16-.34.25-.72.78-.75.18,0,.15-.26.2-.41a1.4,1.4,0,0,1,1.14-1.1c.4-.06.56-.45.65-.79s-.32-.32-.52-.45-.21-.43.08-.47.47-.29.49-.6a2.67,2.67,0,0,1,.14-.36.88.88,0,0,1,1.09-.49c.44.12.47.51.48.87s0,1,0,1.44-.6.68-.87,1c-.73.94-.48,2-.46,3.1,0,.3.32.26.56.28.46.06.7-.37,1.11-.43l1.27-1c0-.41.31-.47.69-.54.93-.17,1.17-.48,1.19-1.39a1.94,1.94,0,0,1,.35-1.36,2.69,2.69,0,0,0,.47-2.1.22.22,0,0,1,.11-.1c.33,0,.62,0,.63-.41a2.13,2.13,0,0,1,.13-.46,1.45,1.45,0,0,0,.79-1.22c.27,0,.56-.09.77.13a2.58,2.58,0,0,0,1.58,1c.51.07.26.62.17,1,.88-.39.88-.39.67-1.1-.1-.3.07-.49.39-.44a.84.84,0,0,1,.65,1c-.05.21-.16.42-.22.64s-.11.47.13.61.48-.09.67-.28.27-.33.18-.52c-.24-.51-.07-1.09-.32-1.6s-.8-.33-1-.72c0,0-.06,0-.08-.05a1,1,0,0,0-1.45-.14c-.45.29-.79.31-1-.24-.16-.36-.42-.39-.7-.07a2.85,2.85,0,0,1-.38.31c-.26-.11-.56.18-.8-.06l-.07-1.69c0-.22.08-.47.3-.58a1.1,1.1,0,0,0,.55-1.23c0-.16,0-.32,0-.48a.6.6,0,0,1,.66-.68,2,2,0,0,0,1.42-.34.38.38,0,0,1,.47,0c.39.39.87.27,1.33.24.14.13,0,.74.4.36s.93-.77.86-1.43c.41-.14.42-.48.39-.79-.1-1,.2-1.93-.33-2.89-.25-.46-.13-1.11-.6-1.55a.6.6,0,0,1-.13-.09c0-.38-.13-.68-.59-.76-.17,0-.35-.08-.36-.26-.05-.57-.49-.5-.88-.52,0-.16,0-.32,0-.48-.23-.89.61-1.73.17-2.64,0-.08.1-.15.2-.17s.4-.06.42-.23c0-.54.43-.57.87-.58.17,0,.37-.05.26-.28s-.27-.35.06-.44.44,0,.49.22.14.51.6.34c.29-.11.65.19,1,.34-.54.56.38.7.39,1.16a5.93,5.93,0,0,1-.05,1c-.06.42,0,.72.59.81a3.67,3.67,0,0,0,1.51.07l1.12,0c.32,0,.75.2.84-.26a6.24,6.24,0,0,1,.38-1.18c.11-.28.1-.58-.34-.64,0-.41-.16-.84.18-1.21.1,0,.27,0,.29,0,.32-.76,1-.72,1.69-.7s1.33.19,1.48-.7c0,0,.1-.09.16-.11.48-.16.53-.52.51-.93a6.74,6.74,0,0,1,0-.77l.75,0c.11,1.1.09,1,1.21.79.58-.13.69-.37.71-.81H235c.21.23.49.19.76.18,1-.06,1.19-.19,1.48-1.1.06-.2,0-.53.27-.58.74-.13.51-.53.45-1a4.87,4.87,0,0,1,.43-3.4,3.31,3.31,0,0,0,.52-2.28h0c.82-.05.82-.05.83-.72a2.59,2.59,0,0,0,0-.48,5.26,5.26,0,0,1,.1-1.05,1.33,1.33,0,0,0-.09-1c0-.48,0-1,0-1.45s.12-.87-.56-.93c-.14,0-.2-.15-.24-.28a4.12,4.12,0,0,1-.22-1.52c0-.29.11-.5.47-.5.63,0,.57-.4.53-.8h0c.37,0,.78.13.86-.4,0-.13.08-.28.22-.3.66-.05.58-.5.59-.92s-.06-.62.38-.68c.68-.08.67-.52.62-1l.18,0a1.17,1.17,0,0,0,1.3-.81.24.24,0,0,1,.09-.11c.38-.17.41-.36.05-.58l0-.6a1.26,1.26,0,0,0,.95-.94c.23-.74.82-1.38.75-2.22a.26.26,0,0,1,.24-.27c.21,0,.3.1.35.27s.13.5.21.75,0,.32.13.34c1.16.31.52,1.21.69,1.85l-.38.1c-.2-.31-.35-.24-.48.05a2.33,2.33,0,0,1-.34-.2c-.13-.11-.08-.42-.4-.31s-.32.26-.38.51c-.21.85.53,1.34.78,2,0,.09.2.09.27,0,.26-.27.43-.15.66.07a.65.65,0,0,0,.84.05c.31.36.39.89,1.06,1,.28,0,.33.56.66.78a3,3,0,0,0,1.14.71c.59.14.7.74.85,1.21a1.62,1.62,0,0,1,0,1.13c-.21.4,0,.63.12.93v.29c0,.16,0,.31,0,.47s.07.26.23.23.14-.19.16-.31l.41,0c0,.43-.15.95.58,1,.16,0,.51.74.55,1.15,0,.26.12.34.35.34s.55,0,.82,0c.55,0,1,0,1.07.7a.1.1,0,0,0,0,.08c1,.53,1,1.68,1.79,2.35a.51.51,0,0,0,.24.16c.56,0,.52.42.52.78,0,.9,0,1.81,0,2.72,0,.49,0,1,.59,1.22.18.08.2.24.23.4a2.19,2.19,0,0,0,.71,1.51c.32.26.32.88.32,1.38a2.3,2.3,0,0,0,.5,1.88,2.1,2.1,0,0,1,.33,1.58c0,.26,0,.54.36.59s.47.33.45.64a1.23,1.23,0,0,0,.49,1.2.92.92,0,0,1,.33.87c0,.71,0,1.42,0,2.13a6.3,6.3,0,0,0,.21,1.24c.06.36.34.35.62.35h0q0,4.47,0,8.92c0,.78-.24,1.63.67,2.17.17.11.14.36.14.55s.13.51.14.75C264.65,378,265,378.13,265.51,378.13Z" transform="translate(-40.86 -326.77)"/><path class="cls-4" d="M232.86,477.69a1.16,1.16,0,0,1,0,.18c-.17,0-.4.06-.38.23.08.69-.62,1.2-.48,1.9a.26.26,0,0,1-.18.31c-.76.09-.61.63-.62,1.09s0,1,0,1.53l0,.36c-.67.14-.33.63-.4,1h0c-.37,0-.41.25-.42.53a3.77,3.77,0,0,1-.12,1.05c-.31,1-1,1.82-.73,2.91a.67.67,0,0,1-.19.54,2.59,2.59,0,0,0-.7,1.75,2.6,2.6,0,0,1-.58,1.32,1.86,1.86,0,0,0-.35,1.27c0,.26,0,.52,0,.77s-.09.29-.25.21c-.8-.36-.58.18-.38.44.35.45.18.79,0,1.24-.33.86-1.21,1.5-1.09,2.52-.65.71-.58,1.67-1,2.46a4.23,4.23,0,0,0-.58,2.39l0,0c-.86.09-.87.08-1,.76a2.4,2.4,0,0,1-.55,1.13c-.13.15-.3.29-.26.5.08.44-.26.7-.43,1a6.82,6.82,0,0,0-1.24,3.16c0,.21-.13.36-.2.54a5,5,0,0,0-.62,2.56l0,0c-.6,0-.71.38-.78.82a7,7,0,0,1-.3,1.6,7,7,0,0,0-.73,3.25c0,.36,0,.7-.51.79-.36.06-.31.38-.31.63,0,.84,0,1.68,0,2.52a2.15,2.15,0,0,1-.25,1c-.24.47-.79.82-.86,1.26-.13.75-.65,1.4-.54,2.22a17.18,17.18,0,0,1,0,2l0,0h-.1c-1.69.06-1.5-.22-1.5,1.47a2.77,2.77,0,0,1-.38,1.76,2.12,2.12,0,0,0-.45,1.52,9,9,0,0,1,0,1.16c0,.43,0,1-.42,1.21-.63.29-.59.71-.59,1.2l0,1.44,0,.37c-.56.06-.39.46-.4.77a.58.58,0,0,1,0,.19c-.27,0-.4.14-.38.4h0c-.58,0-.39.45-.43.75h0c-.64-.13-.31-.63-.4-1,.37,0,.45-.24.36-.54,0,0-.1-.12-.14-.11-.35.08-.16.36-.21.56a.28.28,0,0,0,0,.09c-.31,0-.76.15-.74.4.06.55-.6,1-.14,1.61.18.23,0,.48-.38.53s-.42.31-.33.58a2.24,2.24,0,0,1-.79,2.33c-.44.48-.45,1.27-1.08,1.69-.07,0,0,.25,0,.37a3.19,3.19,0,0,1-1,2.74.61.61,0,0,0-.17.34c-.4,1.4-.76,2.8-1.26,4.17l0,0a.72.72,0,0,0-.74.56c0,.53-.43.86-.65,1.28a2.45,2.45,0,0,1-1.69,1.21c-.78.17-1.56.09-2.18.75-.2.21-.67.2-.79.61a.42.42,0,0,1-.31.22,3,3,0,0,0-2.12,1c-.1.12-.36.17-.52.28s-.43.22-.44.5a13.11,13.11,0,0,1-2.26,0c0-.16-.13-.31-.33-.31H190c-.19,0-.28.15-.32.32l-1.24,0a.55.55,0,0,0-.65-.15,14.22,14.22,0,0,1-3.06.15c-.43,0-.62-.18-.61-.58s0-.65,0-1V452.92c0-.94,0-1.88,0-2.82,0-.45.18-.66.67-.63h55.59c.48,0,1.07-.18,1.19.56,0,.17.26.18.43.18l1.13,0h0c0,.4,0,.8-.58.8-.45,0-.5.31-.39.61a3.2,3.2,0,0,1,.15,1.14,1.22,1.22,0,0,1-.5,1.18c-.47.36-.41,1-.71,1.53a2.19,2.19,0,0,0-.45,1.55.25.25,0,0,1-.29.31c-.58-.14-.51.23-.52.55a.93.93,0,0,0,0,.29c.26,1.18-.46,1.94-1.27,2.65-.33.29-.67.53-.61,1a.43.43,0,0,1-.13.35c-.33.31-.25.59-.06.95.36.66.32.83-.32,1.26a.58.58,0,0,0-.29.56v1.36c0,.61.08,1.22-.62,1.63-.37.21-.16.65-.2,1s.05.6-.37.7c-.67.15-.48.62-.37,1,.16.59.16.72-.4.67s-.55.15-.5.47c.19,1.14-.78,1.69-1.4,2.37-.27.29-.48.5-.46.89C232.84,476,232.84,476.82,232.86,477.69Z" transform="translate(-40.86 -326.77)"/><path class="cls-5" d="M139.05,415.55v12L88,534.5h47.22v13.27H54V534.5l50.41-105.68H61.18V415.55Z" transform="translate(-40.86 -326.77)"/><path class="cls-5" d="M243.11,547.77V415.55h45.66q17.82,0,28.47,9.35t10.66,25q0,24-22.87,31.29,11.75,5.41,15.21,11.91t4.7,25.19q1.49,22.27,6,29.44H297.48q-3.19-9.19-3.19-22.95l-.15-7.85-.16-9.88q0-22.86-14.78-22.86h-5.29v63.54Zm30.8-74.49h6.22q17.5,0,17.51-22.76t-17.51-22.77h-6.22Z" transform="translate(-40.86 -326.77)"/><path class="cls-5" d="M399.5,415.55l29.56,132.22h-31l-6.3-28.67h-32l-6.77,28.67H341l31.43-132.22Zm-36.64,90.28h26.06l-12.52-58.6Z" transform="translate(-40.86 -326.77)"/><path class="cls-5" d="M483.27,438.92c.05-.14.12-.28.18-.42a3.29,3.29,0,0,0-.33.23Z" transform="translate(-40.86 -326.77)"/><path class="cls-5" d="M521.72,443.31c-11.85,2.74-23.55,11.95-34.31,7.28q2.37,11.87,2.37,33,0,48.24-12.3,48.24t-12.19-48.24q0-48.24,12.19-48.24c2.17,0,4,1.15,5.64,3.4a3.29,3.29,0,0,1,.33-.23c3.18-7.59,9.06-13.14,12.78-20.12a57.44,57.44,0,0,0-18.65-2.83q-50.49,0-50.49,66.11t50.49,66.11q50.4,0,50.4-66.11Q528,458.38,521.72,443.31Z" transform="translate(-40.86 -326.77)"/></svg>